<mxfile host="app.diagrams.net" modified="2023-09-13T09:34:07.822Z" agent="Mozilla/5.0 (X11; Linux x86_64) AppleWebKit/537.36 (KHTML, like Gecko) Chrome/115.0.0.0 Safari/537.36" etag="QRJajSYRC9idkMDU67ge" version="21.7.4" type="github">
  <diagram name="Page-1" id="d7BoEFJzNwEDKlddv_IU">
    <mxGraphModel dx="1386" dy="771" grid="0" gridSize="10" guides="1" tooltips="1" connect="1" arrows="1" fold="1" page="1" pageScale="1" pageWidth="1600" pageHeight="900" math="0" shadow="0">
      <root>
        <mxCell id="0" />
        <mxCell id="1" parent="0" />
      </root>
    </mxGraphModel>
  </diagram>
</mxfile>
